#Comment line ignore any data following # character 
#Hierarchical Translation and Rotation (.htr) file 
[Header]	
#Header keywords are followed by a single value 
FileType HTR		#Single word string
DataType HTRS		#Translation followed by rotation and scale data
FileVersion 1		#integer
NumSegments 64		#integer
NumFrames 3		#integer
DataFrameRate 30		#integer, data frame rate in this file
EulerRotationOrder ZYX
CalibrationUnits mm
RotationUnits Degrees
GlobalAxisofGravity Y
BoneLengthAxis Y
ScaleFactor 1.00
[SegmentNames&Hierarchy]
#CHILD	PARENT
Pinger_Root GLOBAL
Pelvis Pinger_Root
L_Hip Pelvis
R_Hip Pelvis
Rear_Leg01 Pelvis
Spine1 Pelvis
L_Leg01 L_Hip
L_Leg02 L_Leg01
L_Leg03 L_Leg02
L_Foot L_Leg03
L_Toe1_01 L_Foot
L_Toe2_01 L_Foot
L_Toe3_01 L_Foot
planeAlignerLeft L_Foot
L_Toe1_02 L_Toe1_01
L_Toe1_03 L_Toe1_02
L_Toe2_02 L_Toe2_01
L_Toe2_03 L_Toe2_02
L_Toe3_02 L_Toe3_01
L_Toe3_03 L_Toe3_02
planeLockWeightLeft planeAlignerLeft
R_Leg01 R_Hip
R_Leg02 R_Leg01
R_Leg03 R_Leg02
R_Foot R_Leg03
planeAlignerRight R_Foot
R_Toe1_01 R_Foot
R_Toe2_01 R_Foot
R_Toe3_01 R_Foot
planeLockWeightRight planeAlignerRight
R_Toe1_02 R_Toe1_01
R_Toe1_03 R_Toe1_02
R_Toe2_02 R_Toe2_01
R_Toe2_03 R_Toe2_02
R_Toe3_02 R_Toe3_01
R_Toe3_03 R_Toe3_02
Rear_Leg02 Rear_Leg01
Rear_Leg03 Rear_Leg02
Rear_Leg04 Rear_Leg03
Rear_Foot Rear_Leg04
planeAlignerCenter Rear_Foot
Rear_Toe1_01 Rear_Foot
Rear_Toe2_01 Rear_Foot
Rear_Toe3_01 Rear_Foot
planeLockWeightCenter planeAlignerCenter
Rear_Toe1_02 Rear_Toe1_01
Rear_Toe1_03 Rear_Toe1_02
Rear_Toe2_02 Rear_Toe2_01
Rear_Toe2_03 Rear_Toe2_02
Rear_Toe3_02 Rear_Toe3_01
Rear_Toe3_03 Rear_Toe3_02
Back_Bone Spine1
Head Spine1
Motor_Bone Back_Bone
Ping_Mechanism Back_Bone
BN_LookIK Head
bottomMouth Head
L_Mouth01 Head
L_mouthFront Head
mouthGun Head
R_Mouth01 Head
R_mouthFront Head
TopMouth Head
weapon_bone Head
[BasePosition]
#SegmentName Tx, Ty, Tz, Rx, Ry, Rz, BoneLength
Pinger_Root 0.000000 0.000000 0.000000 -90.000000 0.000000 0.000000 10.000000 
Pelvis 0.000000 0.000000 0.000000 0.000000 0.000000 0.000000 10.000000 
L_Hip 0.000000 0.000000 0.000000 0.000000 0.000000 0.000000 10.000000 
R_Hip 0.000000 0.000000 0.000000 0.000000 0.000000 0.000000 10.000000 
Rear_Leg01 0.000000 0.000000 0.000000 0.000000 0.000000 0.000000 10.000000 
Spine1 0.000000 0.000000 0.000000 0.000000 0.000000 0.000000 10.000000 
L_Leg01 0.000000 0.000000 0.000000 0.000000 0.000000 0.000000 10.000000 
L_Leg02 0.000000 0.000000 0.000000 0.000000 0.000000 0.000000 10.000000 
L_Leg03 0.000000 0.000000 0.000000 0.000000 0.000000 0.000000 10.000000 
L_Foot 0.000000 0.000000 0.000000 0.000000 0.000000 0.000000 10.000000 
L_Toe1_01 0.000000 0.000000 0.000000 0.000000 0.000000 0.000000 10.000000 
L_Toe2_01 0.000000 0.000000 0.000000 0.000000 0.000000 0.000000 10.000000 
L_Toe3_01 0.000000 0.000000 0.000000 0.000000 0.000000 0.000000 10.000000 
planeAlignerLeft 0.000000 0.000000 0.000000 0.000000 0.000000 0.000000 10.000000 
L_Toe1_02 0.000000 0.000000 0.000000 0.000000 0.000000 0.000000 10.000000 
L_Toe1_03 0.000000 0.000000 0.000000 0.000000 0.000000 0.000000 10.000000 
L_Toe2_02 0.000000 0.000000 0.000000 0.000000 0.000000 0.000000 10.000000 
L_Toe2_03 0.000000 0.000000 0.000000 0.000000 0.000000 0.000000 10.000000 
L_Toe3_02 0.000000 0.000000 0.000000 0.000000 0.000000 0.000000 10.000000 
L_Toe3_03 0.000000 0.000000 0.000000 0.000000 0.000000 0.000000 10.000000 
planeLockWeightLeft 0.000000 0.000000 0.000000 0.000000 0.000000 0.000000 10.000000 
R_Leg01 0.000000 0.000000 0.000000 0.000000 0.000000 0.000000 10.000000 
R_Leg02 0.000000 0.000000 0.000000 0.000000 0.000000 0.000000 10.000000 
R_Leg03 0.000000 0.000000 0.000000 0.000000 0.000000 0.000000 10.000000 
R_Foot 0.000000 0.000000 0.000000 0.000000 0.000000 0.000000 10.000000 
planeAlignerRight 0.000000 0.000000 0.000000 0.000000 0.000000 0.000000 10.000000 
R_Toe1_01 0.000000 0.000000 0.000000 0.000000 0.000000 0.000000 10.000000 
R_Toe2_01 0.000000 0.000000 0.000000 0.000000 0.000000 0.000000 10.000000 
R_Toe3_01 0.000000 0.000000 0.000000 0.000000 0.000000 0.000000 10.000000 
planeLockWeightRight 0.000000 0.000000 0.000000 0.000000 0.000000 0.000000 10.000000 
R_Toe1_02 0.000000 0.000000 0.000000 0.000000 0.000000 0.000000 10.000000 
R_Toe1_03 0.000000 0.000000 0.000000 0.000000 0.000000 0.000000 10.000000 
R_Toe2_02 0.000000 0.000000 0.000000 0.000000 0.000000 0.000000 10.000000 
R_Toe2_03 0.000000 0.000000 0.000000 0.000000 0.000000 0.000000 10.000000 
R_Toe3_02 0.000000 0.000000 0.000000 0.000000 0.000000 0.000000 10.000000 
R_Toe3_03 0.000000 0.000000 0.000000 0.000000 0.000000 0.000000 10.000000 
Rear_Leg02 0.000000 0.000000 0.000000 0.000000 0.000000 0.000000 10.000000 
Rear_Leg03 0.000000 0.000000 0.000000 0.000000 0.000000 0.000000 10.000000 
Rear_Leg04 0.000000 0.000000 0.000000 0.000000 0.000000 0.000000 10.000000 
Rear_Foot 0.000000 0.000000 0.000000 0.000000 0.000000 0.000000 10.000000 
planeAlignerCenter 0.000000 0.000000 0.000000 0.000000 0.000000 0.000000 10.000000 
Rear_Toe1_01 0.000000 0.000000 0.000000 0.000000 0.000000 0.000000 10.000000 
Rear_Toe2_01 0.000000 0.000000 0.000000 0.000000 0.000000 0.000000 10.000000 
Rear_Toe3_01 0.000000 0.000000 0.000000 0.000000 0.000000 0.000000 10.000000 
planeLockWeightCenter 0.000000 0.000000 0.000000 0.000000 0.000000 0.000000 10.000000 
Rear_Toe1_02 0.000000 0.000000 0.000000 0.000000 0.000000 0.000000 10.000000 
Rear_Toe1_03 0.000000 0.000000 0.000000 0.000000 0.000000 0.000000 10.000000 
Rear_Toe2_02 0.000000 0.000000 0.000000 0.000000 0.000000 0.000000 10.000000 
Rear_Toe2_03 0.000000 0.000000 0.000000 0.000000 0.000000 0.000000 10.000000 
Rear_Toe3_02 0.000000 0.000000 0.000000 0.000000 0.000000 0.000000 10.000000 
Rear_Toe3_03 0.000000 0.000000 0.000000 0.000000 0.000000 0.000000 10.000000 
Back_Bone 0.000000 0.000000 0.000000 0.000000 0.000000 0.000000 10.000000 
Head 0.000000 0.000000 0.000000 0.000000 0.000000 0.000000 10.000000 
Motor_Bone 0.000000 0.000000 0.000000 0.000000 0.000000 0.000000 10.000000 
Ping_Mechanism 0.000000 0.000000 0.000000 0.000000 0.000000 0.000000 10.000000 
BN_LookIK 0.000000 0.000000 0.000000 0.000000 0.000000 0.000000 10.000000 
bottomMouth 0.000000 0.000000 0.000000 0.000000 0.000000 0.000000 10.000000 
L_Mouth01 0.000000 0.000000 0.000000 0.000000 0.000000 0.000000 10.000000 
L_mouthFront 0.000000 0.000000 0.000000 0.000000 0.000000 0.000000 10.000000 
mouthGun 0.000000 0.000000 0.000000 0.000000 0.000000 0.000000 10.000000 
R_Mouth01 0.000000 0.000000 0.000000 0.000000 0.000000 0.000000 10.000000 
R_mouthFront 0.000000 0.000000 0.000000 0.000000 0.000000 0.000000 10.000000 
TopMouth 0.000000 0.000000 0.000000 0.000000 0.000000 0.000000 10.000000 
weapon_bone 0.000000 0.000000 0.000000 0.000000 0.000000 0.000000 10.000000 
#Beginning of Data. Separated by tabs
#Fr	Tx	Ty	Tz	Rx	Ry	Rz	SF
[Pinger_Root]
4 0.000000 -388.888885 0.000000 -0.000075 -0.000000 -0.000020 388.888885
5 0.000000 -518.518494 0.000000 -0.000075 -0.000000 -0.000020 518.518494
6 0.000000 -648.148254 0.000000 -0.000075 -0.000000 -0.000020 648.148254
[Pelvis]
4 -66.007545 397.260101 5119.396484 -61.111118 -81.804436 69.578949 5135.211426
5 -132.686584 397.897552 5148.608887 -73.411942 -77.290344 81.898720 5165.665527
6 -190.064651 397.928650 5171.267578 -79.055984 -73.371315 87.353477 5190.036621
[L_Hip]
4 5.766392 125.831482 872.656799 -178.250168 -81.786369 87.376007 881.701050
5 5.766392 125.831482 872.656799 -178.250168 -81.786369 87.376007 881.701050
6 5.766392 125.831482 872.656799 -178.250168 -81.786369 87.376007 881.701050
[R_Hip]
4 5.765438 125.836372 -872.654907 -1.748770 81.786041 87.376961 881.699829
5 5.765438 125.836372 -872.654907 -1.748770 81.786041 87.376961 881.699829
6 5.765438 125.836372 -872.654907 -1.748770 81.786041 87.376961 881.699829
[Rear_Leg01]
4 -192.298416 -925.602966 -0.001907 -178.839890 -3.494865 -123.560608 945.367432
5 -192.298416 -925.602966 -0.001907 179.806793 -3.831648 -128.129501 945.367432
6 -192.298416 -925.602966 -0.001907 179.447937 -3.992177 -131.512268 945.367432
[Spine1]
4 290.604584 5.007505 0.000477 -7.273163 -0.855112 12.375856 290.647736
5 290.604584 5.007505 0.000477 -6.696949 -0.494008 7.640840 290.647736
6 290.604584 5.007505 0.000477 -5.886785 -0.062998 3.848548 290.647736
[L_Leg01]
4 761.932007 -0.002384 -0.069261 79.915794 -24.854408 -79.096565 761.932068
5 761.932007 -0.002384 -0.069261 78.205139 -34.634594 -77.535080 761.932068
6 761.932007 -0.002384 -0.069261 76.063011 -42.832657 -75.350693 761.932068
[L_Leg02]
4 1441.140503 -0.000954 -0.000715 -1.457142 0.625926 -96.826630 1441.140503
5 1441.140503 -0.000954 -0.000715 -1.428795 0.651826 -100.898361 1441.140503
6 1441.140503 -0.000954 -0.000715 -1.396527 0.667939 -104.032684 1441.140503
[L_Leg03]
4 1686.963989 -0.000715 -0.000954 0.054159 -0.013440 96.202263 1686.963989
5 1686.963989 -0.000715 -0.000954 0.057754 -0.013193 95.335899 1686.963989
6 1686.963989 -0.000715 -0.000954 0.061344 -0.012892 94.469513 1686.963989
[L_Foot]
4 3041.570068 -30.715107 11.297464 -13.002544 16.438145 66.984085 3041.746094
5 3041.570068 -30.715107 11.297464 -11.748793 16.538418 67.322594 3041.746094
6 3041.570068 -30.715107 11.297464 -10.743938 16.651230 67.233360 3041.746094
[L_Toe1_01]
4 -188.216690 -224.732346 -21.137953 89.665649 -3.258687 -165.127487 293.899567
5 -188.216690 -224.732346 -21.137953 89.607658 -3.022542 -164.837952 293.899567
6 -188.216690 -224.732346 -21.137953 89.550888 -2.786105 -164.548706 293.899567
[L_Toe2_01]
4 200.746536 -219.926590 148.838394 -77.527504 -14.312325 -44.525112 332.896027
5 200.746536 -219.926590 148.838394 -77.570984 -14.171258 -44.493946 332.896027
6 200.746536 -219.926590 148.838394 -77.614349 -14.030165 -44.462894 332.896027
[L_Toe3_01]
4 188.832520 -219.859131 -191.078659 -105.214287 14.737993 -45.311977 347.140900
5 188.832520 -219.859131 -191.078659 -105.294487 14.933207 -45.428192 347.140900
6 188.832520 -219.859131 -191.078659 -105.425446 15.315403 -45.597866 347.140900
[planeAlignerLeft]
4 -10.062866 -610.427673 26.550140 0.000000 -90.000000 -90.001900 611.087646
5 -16.128220 -611.710083 22.020111 0.000000 -90.000000 -90.001900 612.318726
6 -22.193575 -612.992554 17.490080 0.000000 -90.000000 -90.001900 613.643433
[L_Toe1_02]
4 413.761139 0.000477 0.000000 0.001412 -22.411362 0.001412 413.761139
5 413.761139 0.000477 0.000000 0.001410 -22.631678 0.001410 413.761139
6 413.761139 0.000477 0.000000 0.001409 -22.851999 0.001409 413.761139
[L_Toe1_03]
4 464.317322 0.000358 -0.000089 0.015118 81.095085 0.015118 464.317322
5 464.317322 0.000358 -0.000089 0.013734 80.195107 0.013734 464.317322
6 464.317322 0.000358 -0.000089 0.012582 79.295036 0.012582 464.317322
[L_Toe2_02]
4 342.235809 -0.000477 0.000238 0.001180 -77.623657 0.001180 342.235809
5 342.235809 -0.000477 0.000238 0.001180 -77.785294 0.001180 342.235809
6 342.235809 -0.000477 0.000238 0.001180 -77.946854 0.001180 342.235809
[L_Toe2_03]
4 420.210846 -0.000715 0.000000 -179.996414 77.651848 -179.992905 420.210846
5 420.210846 -0.000715 0.000000 -179.996689 76.978912 -179.993179 420.210846
6 420.210846 -0.000715 0.000000 -179.997040 76.000107 -179.993515 420.210846
[L_Toe3_02]
4 329.270111 0.000954 0.000000 0.001177 -81.831505 0.001177 329.270111
5 329.270111 0.000954 0.000000 0.001177 -81.815132 0.001177 329.270111
6 329.270111 0.000954 0.000000 0.001177 -81.869476 0.001177 329.270111
[L_Toe3_03]
4 439.137451 -0.001907 0.000954 -179.997833 73.186462 -179.994293 439.137451
5 439.137451 -0.001907 0.000954 -179.997925 72.787086 -179.994400 439.137451
6 439.137451 -0.001907 0.000954 -179.998016 72.387741 -179.994476 439.137451
[planeLockWeightLeft]
4 999.999146 0.098055 0.076240 -0.011826 -0.004376 0.005620 999.999146
5 999.999146 0.098061 0.076232 -0.011826 -0.004376 0.005620 999.999146
6 999.999146 0.098067 0.076223 -0.011826 -0.004376 0.005620 999.999146
[R_Leg01]
4 761.455627 -0.001907 -0.000358 117.683846 -40.476315 55.487843 761.455688
5 761.455627 -0.001907 -0.000358 120.522621 -43.486488 52.671276 761.455688
6 761.455627 -0.001907 -0.000358 122.769646 -45.892830 50.502625 761.455688
[R_Leg02]
4 1441.140625 0.000000 -0.000238 0.193430 -0.013665 -95.749489 1441.140625
5 1441.140625 0.000000 -0.000238 0.199319 0.003098 -91.120430 1441.140625
6 1441.140625 0.000000 -0.000238 0.203755 0.013594 -86.258873 1441.140625
[R_Leg03]
4 1686.963989 0.000954 0.001431 -0.045896 0.012401 97.612663 1686.963989
5 1686.963989 0.000954 0.001431 -0.049428 0.013349 96.580452 1686.963989
6 1686.963989 0.000954 0.001431 -0.056573 0.013064 95.188248 1686.963989
[R_Foot]
4 3041.560059 -30.531288 -11.204481 13.532054 -21.367968 40.483608 3041.734131
5 3041.560059 -30.531288 -11.204481 14.585402 -21.450285 37.540989 3041.734131
6 3041.560059 -30.531288 -11.204481 15.390527 -21.710791 34.821823 3041.734131
[planeAlignerRight]
4 -6.385803 -736.972839 6.295471 0.000000 -89.960434 -90.005180 737.027405
5 -11.356049 -765.124451 9.741516 0.000000 -89.960434 -90.005180 765.270752
6 -16.326298 -793.276062 13.187563 0.000000 -89.960434 -90.005180 793.553650
[R_Toe1_01]
4 -188.383347 -224.864899 21.052242 90.905952 1.577890 -155.395493 294.101532
5 -188.383347 -224.864899 21.052242 90.990715 1.375743 -152.834671 294.101532
6 -188.383347 -224.864899 21.052242 91.066368 1.169909 -150.273071 294.101532
[R_Toe2_01]
4 200.637817 -220.002121 -148.787384 -103.830078 10.287652 -53.642902 332.857574
5 200.637817 -220.002121 -148.787384 -104.131729 9.753184 -55.459522 332.857574
6 200.637817 -220.002121 -148.787384 -104.415634 9.209580 -57.270443 332.857574
[R_Toe3_01]
4 188.606735 -220.092957 191.126343 -71.756119 -13.388285 -55.735424 347.192566
5 188.606735 -220.092957 191.126343 -71.260628 -13.040886 -57.634216 347.192566
6 188.606735 -220.092957 191.126343 -70.777946 -12.677724 -59.527203 347.192566
[planeLockWeightRight]
4 999.999084 -0.000114 0.076160 -0.011823 -0.004379 -0.000027 999.999084
5 999.999146 -0.000153 0.076170 -0.011823 -0.004379 -0.000027 999.999146
6 999.999146 -0.000191 0.076180 -0.011823 -0.004379 -0.000027 999.999146
[R_Toe1_02]
4 413.762085 0.000477 -0.000119 0.001396 -24.380537 0.001396 413.762085
5 413.762085 0.000477 -0.000119 0.001393 -24.870541 0.001393 413.762085
6 413.762085 0.000477 -0.000119 0.001389 -25.360544 0.001389 413.762085
[R_Toe1_03]
4 464.317810 0.000000 0.001088 0.007229 71.312836 0.007229 464.317810
5 464.317810 0.000000 0.001088 0.006050 67.629555 0.006050 464.317810
6 464.317810 0.000000 0.001088 0.005067 63.172619 0.005067 464.317810
[R_Toe2_02]
4 342.234741 -0.000954 0.000238 -0.001463 -73.970268 -0.001463 342.234741
5 342.234741 -0.000954 0.000238 -0.000581 -73.141945 -0.000581 342.234741
6 342.234741 -0.000954 0.000238 0.000303 -72.313591 0.000303 342.234741
[R_Toe2_03]
4 420.210846 0.000715 -0.000268 0.000000 89.893471 -0.003496 420.210846
5 420.210846 0.000715 -0.000268 -0.027215 87.725914 -0.030712 420.210846
6 420.210846 0.000715 -0.000268 0.027992 85.193970 0.027992 420.210846
[R_Toe3_02]
4 329.270355 -0.000477 -0.000954 0.001180 -77.796906 0.001180 329.270355
5 329.270355 -0.000477 -0.000954 0.001181 -76.928314 0.001181 329.270355
6 329.270355 -0.000477 -0.000954 0.001182 -76.059746 0.001182 329.270355
[R_Toe3_03]
4 439.137939 0.000238 0.001431 -179.974442 87.586861 -179.970947 439.137939
5 439.137939 0.000238 0.001431 0.000000 89.881310 0.003496 439.137939
6 439.137939 0.000238 0.001431 -0.025321 87.205574 -0.021823 439.137939
[Rear_Leg02]
4 1162.777710 -0.029802 0.005960 11.880016 -8.738939 -97.563675 1162.777710
5 1162.777710 -0.029802 0.005960 7.129390 -8.535700 -86.647583 1162.777710
6 1162.777710 -0.029802 0.005960 5.176684 -10.399507 -77.166122 1162.777710
[Rear_Leg03]
4 607.192505 -0.013351 -0.073195 0.010059 -0.005914 77.257248 607.192505
5 607.192505 -0.013351 -0.073195 0.010222 -0.005627 74.020325 607.192505
6 607.192505 -0.013351 -0.073195 0.010410 -0.005270 70.057777 607.192505
[Rear_Leg04]
4 995.874512 -0.020504 -0.011921 -0.043195 -0.017288 90.532639 995.874573
5 995.874512 -0.020504 -0.011921 -0.041971 -0.017573 80.522026 995.874573
6 995.874512 -0.020504 -0.011921 -0.040716 -0.017641 70.511406 995.874573
[Rear_Foot]
4 3096.176270 -0.067472 -0.041425 -118.919960 73.666374 51.273521 3096.176270
5 3096.176270 -0.067472 -0.041425 -132.891754 74.888466 30.635708 3096.176270
6 3096.176270 -0.067472 -0.041425 -135.964798 73.369606 28.702549 3096.176270
[planeAlignerCenter]
4 1.571789 272.693481 -756.038513 0.000009 0.000003 -179.999985 803.715332
5 -3.316612 313.296783 -758.203369 0.000009 0.000003 -179.999985 820.389099
6 -5.363540 339.627045 -760.183472 0.000009 0.000003 -179.999985 832.618896
[Rear_Toe1_01]
4 0.653352 83.966492 -371.173737 0.093190 39.636082 90.042770 380.553192
5 0.653352 83.966492 -371.173737 0.092039 39.631432 90.042175 380.553192
6 0.653352 83.966492 -371.173737 0.087453 39.757881 90.039558 380.553192
[Rear_Toe2_01]
4 178.200760 -294.826019 -362.060547 98.695625 83.707863 28.090557 499.765686
5 178.200760 -294.826019 -362.060547 111.165016 82.581566 40.574409 499.765686
6 178.200760 -294.826019 -362.060547 118.865891 81.490562 48.255890 499.765686
[Rear_Toe3_01]
4 -153.359680 -308.780914 -362.060852 -96.266014 82.922966 152.135834 499.952881
5 -153.359680 -308.780914 -362.060852 -107.636864 81.806000 140.747833 499.952881
6 -153.359680 -308.780914 -362.060852 -114.889496 80.740540 133.508118 499.952881
[planeLockWeightCenter]
4 0.000248 0.000000 0.076294 -0.011814 -0.004373 -0.000015 0.076294
5 156.250229 0.000000 0.076370 -0.011814 -0.004373 -0.000015 156.250244
6 500.000244 0.000000 0.076332 -0.011814 -0.004373 -0.000015 500.000244
[Rear_Toe1_02]
4 379.707825 0.194073 0.000477 -0.000767 -33.624729 0.000838 379.707855
5 379.707825 0.194073 0.000477 -0.000767 -33.624729 0.000838 379.707855
6 379.707825 0.194073 0.000477 -0.000767 -33.624729 0.000838 379.707855
[Rear_Toe1_03]
4 500.129700 0.165701 0.000119 -0.031670 88.028603 -0.035169 500.129761
5 500.129700 0.165701 0.000119 -0.010629 84.677742 -0.014129 500.129761
6 500.129700 0.165701 0.000119 0.016533 81.858765 0.016533 500.129761
[Rear_Toe2_02]
4 340.494507 0.000238 -0.000954 179.998825 -87.150154 179.998825 340.494507
5 340.494507 0.000238 -0.000954 179.998825 -87.085365 179.998825 340.494507
6 340.494507 0.000238 -0.000954 179.998825 -87.020531 179.998825 340.494507
[Rear_Toe2_03]
4 433.103577 0.000000 0.000238 -179.996307 54.058189 -179.999985 433.103546
5 433.103577 0.000000 0.000238 -179.996323 53.541832 180.000000 433.103546
6 433.103577 0.000000 0.000238 -179.996338 53.439400 180.000000 433.103546
[Rear_Toe3_02]
4 340.494141 -0.000358 -0.000477 -179.994171 -87.201241 -179.994171 340.494171
5 340.494141 -0.000358 -0.000477 -179.994171 -87.137482 -179.994171 340.494171
6 340.494141 -0.000358 -0.000477 -179.994171 -87.073837 -179.994171 340.494171
[Rear_Toe3_03]
4 433.103577 0.001431 -0.000238 179.992493 54.363705 179.999847 433.103546
5 433.103577 0.001431 -0.000238 179.992538 53.874454 179.999893 433.103546
6 433.103577 0.001431 -0.000238 179.992554 53.785728 179.999908 433.103546
[Back_Bone]
4 1312.175781 -701.934692 0.000954 -3.212733 -0.037430 -84.636566 1488.125488
5 1312.175781 -701.934692 0.000954 -3.274355 -0.867710 -84.454651 1488.125488
6 1312.175781 -701.934692 0.000954 -3.338629 -1.697743 -84.271774 1488.125488
[Head]
4 1406.159424 809.709290 0.001431 -3.332396 1.398247 22.083084 1622.625488
5 1406.159424 809.709290 0.001431 -3.729598 1.223322 21.631907 1622.625488
6 1406.159424 809.709290 0.001431 -4.125398 1.045275 21.181963 1622.625488
[Motor_Bone]
4 1158.364380 -417.834747 0.000477 0.251855 -0.541808 -106.527908 1231.419434
5 1158.364380 -417.834747 0.000477 2.270587 -1.149517 -107.133400 1231.419434
6 1158.364380 -417.834747 0.000477 1.114804 -1.132542 -107.122055 1231.419434
[Ping_Mechanism]
4 1251.625244 -446.361694 13.914451 0.000103 -0.000053 82.120995 1328.908691
5 1275.540649 -453.618774 8.484573 0.000103 -0.000053 82.120995 1353.826416
6 1295.505005 -457.807007 2.931592 0.000103 -0.000053 82.120995 1374.019287
[BN_LookIK]
4 193.241119 1380.371704 -0.002861 0.000000 89.965736 -31.038179 1393.832153
5 193.241119 1380.371704 -0.002861 0.000000 89.965736 -31.038179 1393.832153
6 193.241119 1380.371704 -0.002861 0.000000 89.965736 -31.038179 1393.832153
[bottomMouth]
4 -435.092926 615.759399 -0.000954 -0.000022 0.000016 73.527184 753.966492
5 -435.092926 615.759399 -0.000954 -0.000022 0.000016 73.527184 753.966492
6 -435.092926 615.759399 -0.000954 -0.000022 0.000016 73.527184 753.966492
[L_Mouth01]
4 554.440979 7.658243 838.222046 150.204178 23.759130 109.605339 1005.027161
5 554.440979 7.658243 838.222046 150.204178 23.759130 109.605339 1005.027161
6 554.440979 7.658243 838.222046 150.204178 23.759130 109.605339 1005.027161
[L_mouthFront]
4 551.629089 934.514771 339.150421 0.000081 2.804060 79.119301 1136.941284
5 551.629089 934.514771 339.150421 0.000081 2.804060 79.119301 1136.941284
6 551.629089 934.514771 339.150421 0.000081 2.804060 79.119301 1136.941284
[mouthGun]
4 55.332661 1627.420898 0.000000 0.000023 0.000009 -11.038128 1628.361328
5 55.332661 1627.420898 0.000000 0.000023 0.000009 -11.038128 1628.361328
6 55.332661 1627.420898 0.000000 0.000023 0.000009 -11.038128 1628.361328
[R_Mouth01]
4 554.442383 7.659197 -838.223938 29.795891 -23.759109 109.605331 1005.029541
5 554.442383 7.659197 -838.223938 29.795891 -23.759109 109.605331 1005.029541
6 554.442383 7.659197 -838.223938 29.795891 -23.759109 109.605331 1005.029541
[R_mouthFront]
4 551.629089 934.514282 -339.151367 0.000029 -2.803930 79.119133 1136.941162
5 551.629089 934.514282 -339.151367 0.000029 -2.803930 79.119133 1136.941162
6 551.629089 934.514282 -339.151367 0.000029 -2.803930 79.119133 1136.941162
[TopMouth]
4 461.269867 -56.106091 -0.008583 -0.000059 -0.000268 92.025169 464.669525
5 461.269867 -56.106091 -0.008583 -0.000059 -0.000268 92.025169 464.669525
6 461.269867 -56.106091 -0.008583 -0.000059 -0.000268 92.025169 464.669525
[weapon_bone]
4 -987.239868 1448.372803 0.001431 0.000000 89.965736 -31.038221 1752.833740
5 -987.239868 1448.372803 0.001431 0.000000 89.965736 -31.038221 1752.833740
6 -987.239868 1448.372803 0.001431 0.000000 89.965736 -31.038221 1752.833740
